<?xml version="1.0" encoding="UTF-8"?>
<!--Generator: Apple Native CoreSVG 175.5-->
<!DOCTYPE svg
PUBLIC "-//W3C//DTD SVG 1.1//EN"
       "http://www.w3.org/Graphics/SVG/1.1/DTD/svg11.dtd">
<svg version="1.1" xmlns="http://www.w3.org/2000/svg" xmlns:xlink="http://www.w3.org/1999/xlink" width="66.6504" height="98.291">
 <g>
  <rect height="98.291" opacity="0" width="66.6504" x="0" y="0"/>
  <path d="M10.9863 95.752L55.6641 95.752C62.8418 95.752 66.6504 91.8457 66.6504 84.1309L66.6504 50.4883C66.6504 42.8223 62.8418 38.916 55.6641 38.916L10.9863 38.916C3.80859 38.916 0 42.8223 0 50.4883L0 84.1309C0 91.8457 3.80859 95.752 10.9863 95.752ZM11.2305 88.3789C9.13086 88.3789 7.91016 87.0605 7.91016 84.668L7.91016 49.9512C7.91016 47.5586 9.13086 46.2891 11.2305 46.2891L55.4199 46.2891C57.5684 46.2891 58.7402 47.5586 58.7402 49.9512L58.7402 84.668C58.7402 87.0605 57.5684 88.3789 55.4199 88.3789ZM8.54492 42.6758L16.3086 42.6758L16.3086 26.2207C16.3086 13.8672 24.1699 7.37305 33.3008 7.37305C42.4316 7.37305 50.3906 13.8672 50.3906 26.2207L50.3906 42.6758L58.1055 42.6758L58.1055 27.2461C58.1055 8.88672 46.0938 0 33.3008 0C20.5566 0 8.54492 8.88672 8.54492 27.2461Z" fill="#ffffff" fill-opacity="0.85"/>
 </g>
</svg>
